<?xml version="1.0" standalone="no"?>
<!DOCTYPE svg PUBLIC "-//W3C//DTD SVG 20010904//EN"
 "http://www.w3.org/TR/2001/REC-SVG-20010904/DTD/svg10.dtd">
<svg version="1.0" xmlns="http://www.w3.org/2000/svg"
 width="522.000000pt" height="485.000000pt" viewBox="0 0 522.000000 485.000000"
 preserveAspectRatio="xMidYMid meet">

<g transform="translate(0.000000,485.000000) scale(0.100000,-0.100000)"
fill="#000000" stroke="none">
<path d="M2538 4283 c45 -2 119 -2 165 0 45 1 8 3 -83 3 -91 0 -128 -2 -82 -3z"/>
<path d="M2172 3997 c-73 -73 -82 -87 -82 -119 0 -20 -4 -48 -10 -62 l-10 -26
85 0 c118 0 118 0 109 159 -4 69 -7 127 -8 128 -1 1 -39 -35 -84 -80z"/>
<path d="M1940 3653 c-151 -5 -157 -25 -7 -22 99 1 122 -1 135 -15 15 -14 17
-47 20 -226 2 -138 -1 -216 -8 -230 -10 -19 -8 -20 79 -20 79 0 92 2 101 19
11 22 13 325 2 405 -12 87 -57 99 -322 89z"/>
<path d="M3168 3653 c-73 -2 -118 -8 -118 -14 0 -7 42 -10 120 -8 103 2 123 0
138 -15 15 -14 17 -45 20 -226 2 -138 -1 -216 -8 -230 -10 -19 -8 -20 72 -20
46 0 89 4 96 8 9 7 12 61 10 237 l-3 228 -25 18 c-29 22 -119 28 -302 22z"/>
<path d="M2460 3640 c0 -6 58 -10 155 -10 97 0 155 4 155 10 0 6 -58 10 -155
10 -97 0 -155 -4 -155 -10z"/>
<path d="M1918 3033 c-75 -2 -118 -8 -118 -14 0 -8 43 -10 132 -8 l132 4 13
-25 c7 -14 13 -44 13 -67 l0 -43 -200 0 -200 0 0 -75 0 -75 75 0 75 0 0 -165
c0 -158 -1 -165 -20 -165 -11 0 -20 -4 -20 -10 0 -5 9 -10 20 -10 13 0 20 -7
20 -20 0 -20 -7 -20 -357 -21 -197 -1 -371 -5 -388 -9 -16 -4 144 -8 358 -9
l387 -1 0 -200 0 -200 80 0 80 0 0 200 0 200 45 0 45 0 0 -196 c0 -115 -4
-203 -10 -215 -10 -18 -7 -19 74 -19 62 0 89 4 100 15 9 9 34 15 65 15 l51 0
0 200 0 200 55 0 55 0 0 -200 0 -200 70 0 70 0 0 200 0 200 33 0 33 0 50 -197
51 -198 81 -3 82 -3 0 201 0 200 120 0 120 0 0 -200 0 -200 70 0 c58 0 68 -3
64 -15 -5 -13 7 -15 74 -15 113 0 112 -2 112 173 1 109 4 147 15 161 8 11 15
29 14 40 0 21 -1 21 -9 1 -7 -18 -8 -17 -15 10 -23 100 -44 125 -102 125 -38
0 -38 -2 -17 65 16 48 19 52 58 61 l41 9 6 135 c3 74 11 150 17 168 9 26 8 32
-4 32 -10 0 -14 14 -14 58 0 61 -17 89 -65 106 -28 10 -385 -5 -385 -17 0 -5
50 -8 127 -6 l127 4 12 -30 c22 -51 18 -255 -7 -344 -12 -42 -24 -79 -28 -84
-4 -4 -20 37 -35 90 -15 54 -36 128 -48 166 l-20 67 -78 0 c-44 0 -81 -3 -83
-7 -3 -5 30 -113 73 -240 l77 -233 -58 0 c-83 0 -84 -18 -2 -22 55 -2 68 -6
71 -20 3 -16 -7 -18 -112 -18 l-116 0 0 270 0 270 -70 0 -70 0 -1 -267 -1
-268 -23 85 c-13 47 -40 150 -60 230 -20 80 -41 162 -46 183 l-10 37 -94 0
-95 0 0 -236 c0 -214 -2 -238 -17 -250 -17 -13 -17 -13 0 -14 10 0 17 -8 17
-20 0 -18 -7 -20 -55 -20 l-55 0 0 271 0 272 -49 -7 -49 -6 -7 52 c-3 29 -9
60 -11 70 -9 30 -66 48 -146 46 -40 -1 -126 -4 -190 -5z m170 -408 c-4 -91 -3
-104 11 -103 9 1 40 0 69 0 l52 -2 0 -62 0 -63 -110 3 -110 3 0 165 0 164 46
0 47 0 -5 -105z m575 -206 c6 -24 4 -26 -18 -21 -24 4 -25 7 -24 81 l1 76 18
-55 c9 -30 20 -67 23 -81z m-583 -71 c0 -4 -18 -8 -40 -8 -33 0 -40 3 -40 19
0 25 39 32 63 12 9 -8 17 -18 17 -23z m590 28 c0 -2 3 -11 6 -20 5 -13 -1 -16
-25 -16 -24 0 -31 4 -31 20 0 15 7 20 25 20 14 0 25 -2 25 -4z"/>
<path d="M1205 3020 c-4 -7 52 -10 159 -10 104 0 166 4 166 10 0 6 -60 10
-159 10 -96 0 -162 -4 -166 -10z"/>
<path d="M2455 3020 c-4 -7 52 -10 160 -10 108 0 164 3 160 10 -4 6 -68 10
-160 10 -92 0 -156 -4 -160 -10z"/>
<path d="M3690 3020 c0 -6 62 -10 165 -10 103 0 165 4 165 10 0 6 -62 10 -165
10 -103 0 -165 -4 -165 -10z"/>
<path d="M924 2748 l-82 -83 -4 -71 -5 -71 70 -2 c48 -1 76 3 93 14 22 14 24
21 23 103 -1 48 -4 111 -7 140 l-7 53 -81 -83z"/>
<path d="M575 2389 c-5 -7 29 -10 107 -9 62 1 118 1 124 1 17 -1 34 -48 34
-96 l0 -45 90 0 90 0 0 51 c0 43 -5 55 -29 80 l-29 29 -191 0 c-122 0 -192 -4
-196 -11z"/>
<path d="M1210 2390 c0 -6 60 -10 161 -10 104 0 158 3 154 10 -4 6 -68 10
-161 10 -96 0 -154 -4 -154 -10z"/>
<path d="M4400 2391 l-115 -7 126 -2 c146 -2 156 -7 161 -87 l3 -50 88 -3 87
-3 0 50 c0 38 -6 56 -24 77 -22 27 -28 28 -117 30 -52 0 -146 -2 -209 -5z"/>
<path d="M3690 2380 c0 -6 62 -10 165 -10 103 0 165 4 165 10 0 6 -62 10 -165
10 -103 0 -165 -4 -165 -10z"/>
<path d="M3580 2330 c-19 -4 112 -8 293 -9 l327 -1 0 -60 c0 -33 4 -60 9 -60
13 0 32 26 24 33 -3 4 7 7 24 7 64 0 44 70 -24 89 -43 12 -597 13 -653 1z"/>
<path d="M3871 1829 c-24 -5 -61 -20 -82 -34 -21 -14 -53 -26 -71 -26 -30 -2
-30 -2 -6 -6 l27 -4 -16 -42 c-9 -23 -16 -76 -17 -117 -2 -111 29 -170 148
-285 83 -80 136 -145 136 -167 0 -5 -31 -8 -70 -8 -40 0 -70 4 -70 10 0 14
-147 13 -152 -1 -2 -7 -1 -42 3 -79 17 -155 94 -219 252 -207 81 5 131 35 168
100 21 36 24 55 24 132 -1 139 -24 186 -148 309 -102 102 -136 156 -137 214 0
41 30 72 70 72 46 0 70 -31 70 -90 l0 -50 76 0 77 0 -6 74 c-5 74 -26 130 -56
154 -59 47 -143 67 -220 51z m119 -739 c0 -49 -27 -80 -70 -80 -43 0 -70 31
-70 80 l0 40 70 0 70 0 0 -40z"/>
<path d="M2226 1816 c-21 -8 -43 -19 -49 -25 -7 -7 -77 -11 -194 -11 -176 0
-183 1 -183 20 0 18 -7 20 -75 20 l-75 0 0 -475 0 -475 200 0 200 0 0 75 0 75
-125 0 -125 0 0 60 0 60 131 0 130 0 15 -35 c17 -42 21 -414 4 -446 -10 -18
-7 -19 79 -19 111 0 114 3 109 130 l-3 88 76 4 c90 5 131 25 173 85 24 35 30
55 34 117 l5 76 43 0 44 0 0 -62 c1 -140 81 -218 222 -218 139 1 218 82 218
226 l0 54 45 0 45 0 0 -135 0 -135 75 0 74 0 4 113 c1 62 4 16 5 -103 1 -157
-1 -219 -10 -228 -9 -9 8 -12 80 -12 112 0 112 1 112 134 l0 96 75 0 c53 0 75
4 75 13 0 6 -18 71 -41 142 -107 341 -108 348 -109 427 0 76 1 79 64 197 35
66 67 132 70 146 l6 25 -73 0 c-72 0 -73 0 -84 -30 -10 -27 -14 -29 -38 -20
-14 5 -51 10 -81 10 -47 0 -54 2 -54 20 0 18 -7 20 -75 20 -68 0 -75 -2 -75
-20 0 -18 -7 -20 -60 -20 -33 0 -60 -4 -60 -10 0 -6 27 -10 60 -10 l60 0 0
-305 0 -305 -45 0 -45 0 0 40 0 40 -69 0 -68 0 -7 -52 c-3 -29 -6 -69 -6 -88
0 -20 -7 -46 -16 -58 -20 -29 -74 -30 -100 -1 -18 20 -19 40 -19 319 0 279 1
299 19 319 12 13 31 21 52 21 48 0 64 -28 64 -117 l0 -73 76 0 76 0 -4 103
c-4 127 -20 159 -98 200 -50 26 -63 28 -136 25 -69 -3 -87 -7 -120 -30 -36
-25 -48 -28 -128 -28 -77 0 -93 3 -133 27 -56 33 -174 42 -237 19z m-149 -86
c16 -31 18 -411 3 -440 -7 -13 -6 -19 5 -24 10 -4 15 -20 15 -54 l0 -49 -46
-7 c-26 -3 -93 -6 -150 -6 l-104 0 0 305 0 306 132 -3 c130 -3 133 -3 145 -28z
m593 28 c0 -2 -7 -21 -15 -43 -11 -31 -14 -100 -15 -302 l0 -263 -45 0 -45 0
0 263 c-1 202 -4 271 -15 302 -8 22 -15 41 -15 43 0 1 34 2 75 2 41 0 75 -1
75 -2z m657 -240 c-1 -40 -3 -10 -3 67 0 77 1 110 3 73 2 -37 2 -100 0 -140z
m-951 151 c18 -20 19 -40 19 -319 0 -334 0 -334 -72 -342 -56 -7 -66 19 -65
160 2 209 11 496 16 509 9 22 80 16 102 -8z m1028 -463 c9 -27 16 -52 16 -54
0 -4 -93 8 -98 13 -2 2 9 27 23 55 15 29 30 49 34 44 5 -5 16 -31 25 -58z"/>
<path d="M1100 1346 l0 -476 138 0 c158 0 223 14 264 57 45 47 58 92 58 206 0
127 -19 198 -60 229 l-29 21 29 30 c20 20 33 48 41 86 14 70 7 186 -14 228
-16 30 -16 32 1 36 12 3 10 5 -7 6 -13 0 -40 11 -60 24 -33 20 -51 22 -198 25
l-163 4 0 -476z m265 318 c16 -12 20 -29 23 -87 3 -62 1 -76 -18 -99 -18 -24
-29 -28 -71 -28 l-49 0 0 115 0 115 48 0 c26 0 56 -7 67 -16z m-24 -374 c48
-13 58 -28 66 -89 l6 -51 -82 0 -81 0 0 75 0 75 28 0 c15 0 43 -5 63 -10z m65
-192 c-9 -58 -25 -71 -96 -76 l-60 -4 0 61 0 61 81 0 82 0 -7 -42z"/>
</g>
</svg>
